<?xml version="1.0" standalone="no"?><!DOCTYPE svg PUBLIC "-//W3C//DTD SVG 1.1//EN" "http://www.w3.org/Graphics/SVG/1.1/DTD/svg11.dtd"><svg t="1557212229065" class="icon" style="" viewBox="0 0 1024 1024" version="1.1" xmlns="http://www.w3.org/2000/svg" p-id="1226" xmlns:xlink="http://www.w3.org/1999/xlink" width="200" height="200"><defs><style type="text/css"></style></defs><path d="M603.122957 743.387688l21.446266 163.072101h-225.114774l21.446265-163.072101z" fill="#808080" p-id="1227"></path><path d="M293.690746 646.453409l-58.633995 96.934279H28.595021c-15.788807 0-28.595021-12.806214-28.595021-28.618692v-68.315587h293.690746z" fill="#999999" p-id="1228"></path><path d="M1024 646.453409v68.315587c0 15.812478-12.806214 28.618692-28.595021 28.618692H235.056751l58.633995-96.934279h730.309254z" fill="#CCCCCC" p-id="1229"></path><path d="M628.001572 93.868837l-334.310826 552.584572H0V122.463857c0-15.788807 12.806214-28.595021 28.595021-28.59502H628.001572z" fill="#1A1A1A" p-id="1230"></path><path d="M1024 122.463857v523.989552H293.690746L628.001572 93.868837h367.403407c15.788807 0 28.595021 12.806214 28.595021 28.59502z" fill="#4D4D4D" p-id="1231"></path><path d="M313.586537 882.788414h396.850597v47.342749h-396.850597z" fill="#CCCCCC" p-id="1232"></path></svg>